<svg width="19" height="19" viewBox="0 0 19 19" fill="none" xmlns="http://www.w3.org/2000/svg">
<g clip-path="url(#clip0_1_41)">
<path d="M1.42152 9.15717C1.31912 9.25953 1.23789 9.38106 1.18247 9.51482C1.12705 9.64858 1.09853 9.79195 1.09853 9.93674C1.09853 10.0815 1.12705 10.2249 1.18247 10.3587C1.23789 10.4924 1.31912 10.614 1.42152 10.7163L8.43723 17.732C8.53966 17.8344 8.66126 17.9156 8.79507 17.971C8.92888 18.0264 9.07229 18.0548 9.21711 18.0548C9.36193 18.0548 9.50532 18.0262 9.6391 17.9707C9.77288 17.9153 9.89443 17.834 9.9968 17.7316C10.0992 17.6292 10.1804 17.5076 10.2358 17.3738C10.2911 17.24 10.3196 17.0965 10.3196 16.9517C10.3195 16.8069 10.291 16.6635 10.2355 16.5297C10.1801 16.3959 10.0988 16.2744 9.99638 16.172L3.7598 9.93631L9.99638 3.69974C10.0987 3.59731 10.1798 3.47573 10.2352 3.34194C10.2905 3.20815 10.3189 3.06477 10.3189 2.91999C10.3187 2.6276 10.2024 2.34724 9.99552 2.1406C9.78865 1.93395 9.50816 1.81796 9.21577 1.81812C8.92337 1.81828 8.64302 1.93459 8.43637 2.14145L1.42152 9.15717ZM18.1161 8.83403H2.20152V11.0377H18.1161V8.83317V8.83403Z" fill="white"/>
</g>
<defs>
<clipPath id="clip0_1_41">
<rect width="18" height="18" fill="white" transform="matrix(-1 0 0 -1 18.8301 18.7349)"/>
</clipPath>
</defs>
</svg>
