<svg width="19" height="19" viewBox="0 0 19 19" fill="none" xmlns="http://www.w3.org/2000/svg">
<g clip-path="url(#clip0_1_44)">
<path d="M18.2386 10.3126C18.341 10.2102 18.4223 10.0887 18.4777 9.9549C18.5331 9.82114 18.5616 9.67777 18.5616 9.53299C18.5616 9.3882 18.5331 9.24483 18.4777 9.11107C18.4223 8.97731 18.341 8.85578 18.2386 8.75341L11.2229 1.7377C11.1205 1.63533 10.9989 1.55413 10.8651 1.49875C10.7313 1.44336 10.5879 1.41488 10.443 1.41492C10.2982 1.41496 10.1548 1.44352 10.0211 1.49898C9.88728 1.55443 9.76573 1.6357 9.66335 1.73813C9.56098 1.84056 9.47978 1.96215 9.4244 2.09596C9.36901 2.22977 9.34053 2.37318 9.34057 2.518C9.34061 2.66282 9.36917 2.80622 9.42463 2.94C9.48009 3.07378 9.56135 3.19533 9.66378 3.2977L15.9004 9.53342L9.66378 15.77C9.56146 15.8724 9.48032 15.994 9.42499 16.1278C9.36966 16.2616 9.34122 16.405 9.3413 16.5497C9.34146 16.8421 9.45777 17.1225 9.66464 17.3291C9.87151 17.5358 10.152 17.6518 10.4444 17.6516C10.7368 17.6514 11.0171 17.5351 11.2238 17.3283L18.2386 10.3126ZM1.54407 10.6357H17.4586V8.43199H1.54407V10.6366V10.6357Z" fill="white"/>
</g>
<defs>
<clipPath id="clip0_1_44">
<rect width="18" height="18" fill="white" transform="translate(0.830078 0.734863)"/>
</clipPath>
</defs>
</svg>
